<svg xmlns="http://www.w3.org/2000/svg" width="1000" height="500">
<rect width="100%" height="100%" fill="#F9F9F9" />
<line x1="50" y1="450" x2="950" y2="450" stroke="black" stroke-width="2"/>
<line x1="50" y1="50" x2="50" y2="450" stroke="black" stroke-width="2"/>
<text x="500" y="490" font-size="16" text-anchor="middle">Distancia (m)</text>
<text x="20" y="250" font-size="16" text-anchor="middle" transform="rotate(-90, 20, 250)">Altitud (m)</text>
<polyline points="104.73234423456444,221.42857142857144 118.25327741753595,164.28571428571428 127.98562165210038,107.14285714285717 153.5288624189456,50.0 172.6985833098393,107.14285714285717 198.1355723146321,221.42857142857144 206.09811107978575,335.7142857142857 217.28943473357768,221.42857142857144 259.165315759797,221.42857142857144 309.33042007330135,278.57142857142856 349.1589723710178,278.57142857142856 397.8444812517621,221.42857142857144 418.08940654073865,164.28571428571428 430.6509021708486,164.28571428571428 474.7073230899352,107.14285714285717 508.77449252889767,50.0 531.7518325345363,164.28571428571428 545.4678249224697,221.42857142857144 580.1740907809416,107.14285714285717 590.1141809980265,107.14285714285717 604.2916549196503,107.14285714285717 667.5574429095011,278.57142857142856 719.5351705666761,221.42857142857144 733.6444530589232,278.57142857142856 748.1422681138993,335.7142857142857 759.3922681138991,335.7142857142857 796.5740414434734,335.7142857142857 811.2796024809697,221.42857142857144 854.7619467155342,107.14285714285717 879.5170214265577,107.14285714285717 907.7213137862983,221.42857142857144 937.7905624471384,278.57142857142856 950.0,335.7142857142857 " style="fill:none;stroke:#FF5733;stroke-width:3" />
<text x="104.73234423456444" y="211.42857142857144" font-size="10" text-anchor="middle">4.0m</text>
<text x="118.25327741753595" y="154.28571428571428" font-size="10" text-anchor="middle">5.0m</text>
<text x="127.98562165210038" y="97.14285714285717" font-size="10" text-anchor="middle">6.0m</text>
<text x="153.5288624189456" y="40.0" font-size="10" text-anchor="middle">7.0m</text>
<text x="172.6985833098393" y="97.14285714285717" font-size="10" text-anchor="middle">6.0m</text>
<text x="198.1355723146321" y="211.42857142857144" font-size="10" text-anchor="middle">4.0m</text>
<text x="206.09811107978575" y="325.7142857142857" font-size="10" text-anchor="middle">2.0m</text>
<text x="217.28943473357768" y="211.42857142857144" font-size="10" text-anchor="middle">4.0m</text>
<text x="259.165315759797" y="211.42857142857144" font-size="10" text-anchor="middle">4.0m</text>
<text x="309.33042007330135" y="268.57142857142856" font-size="10" text-anchor="middle">3.0m</text>
<text x="349.1589723710178" y="268.57142857142856" font-size="10" text-anchor="middle">3.0m</text>
<text x="397.8444812517621" y="211.42857142857144" font-size="10" text-anchor="middle">4.0m</text>
<text x="418.08940654073865" y="154.28571428571428" font-size="10" text-anchor="middle">5.0m</text>
<text x="430.6509021708486" y="154.28571428571428" font-size="10" text-anchor="middle">5.0m</text>
<text x="474.7073230899352" y="97.14285714285717" font-size="10" text-anchor="middle">6.0m</text>
<text x="508.77449252889767" y="40.0" font-size="10" text-anchor="middle">7.0m</text>
<text x="531.7518325345363" y="154.28571428571428" font-size="10" text-anchor="middle">5.0m</text>
<text x="545.4678249224697" y="211.42857142857144" font-size="10" text-anchor="middle">4.0m</text>
<text x="580.1740907809416" y="97.14285714285717" font-size="10" text-anchor="middle">6.0m</text>
<text x="590.1141809980265" y="97.14285714285717" font-size="10" text-anchor="middle">6.0m</text>
<text x="604.2916549196503" y="97.14285714285717" font-size="10" text-anchor="middle">6.0m</text>
<text x="667.5574429095011" y="268.57142857142856" font-size="10" text-anchor="middle">3.0m</text>
<text x="719.5351705666761" y="211.42857142857144" font-size="10" text-anchor="middle">4.0m</text>
<text x="733.6444530589232" y="268.57142857142856" font-size="10" text-anchor="middle">3.0m</text>
<text x="748.1422681138993" y="325.7142857142857" font-size="10" text-anchor="middle">2.0m</text>
<text x="759.3922681138991" y="325.7142857142857" font-size="10" text-anchor="middle">2.0m</text>
<text x="796.5740414434734" y="325.7142857142857" font-size="10" text-anchor="middle">2.0m</text>
<text x="811.2796024809697" y="211.42857142857144" font-size="10" text-anchor="middle">4.0m</text>
<text x="854.7619467155342" y="97.14285714285717" font-size="10" text-anchor="middle">6.0m</text>
<text x="879.5170214265577" y="97.14285714285717" font-size="10" text-anchor="middle">6.0m</text>
<text x="907.7213137862983" y="211.42857142857144" font-size="10" text-anchor="middle">4.0m</text>
<text x="937.7905624471384" y="268.57142857142856" font-size="10" text-anchor="middle">3.0m</text>
<text x="950.0" y="325.7142857142857" font-size="10" text-anchor="middle">2.0m</text>
</svg>
