<svg xmlns="http://www.w3.org/2000/svg" version="1.1" width="1000" height="500">
<polyline points="828.6058053842683,50.0 242.3447134907505,50.0 188.4493908858475,50.0 413.37043164385625,50.0 322.70266205444426,50.0 411.85892615430896,50.0 163.2726725823432,50.0 209.20439163784027,50.0 645.713641149045,50.0 763.6336291171605,50.0 616.5889607459769,50.0 742.5853511806287,50.0 337.9981952173259,50.0 228.6960445179726,50.0 676.7333433599038,50.0 534.6292675590314,50.0 376.86870206046024,50.0 245.1195668521582,50.0 543.7208602797414,50.0 191.40472251466386,50.0 251.68446382914723,50.0 950.0,50.0 789.4194615731689,50.0 250.71439314182584,50.0 256.24154008121525,50.0 210.03910362460522,50.0 578.9366822078508,50.0 259.1968717100316,50.0 668.566701759663,50.0 402.1582192810949,50.0 451.22574823281695,50.0 477.75605354188605,50.0 223.68777259738306,50.0 " style="fill:none;stroke:black;stroke-width:2" />
</svg>
