<?xml version="1.0" encoding="utf-8"?><svg width="auto" height="1970" style="overflow:visible " version="1.1" xmlns="http://www.w3.org/2000/svg"><rect x="20" y="20" width="200" height="40" style="fill:white;stroke:black;stroke-width:1" /><text x="30" y="30" font-size="10" style="fill:blue">circuito</text><rect x="240" y="20" width="200" height="40" style="fill:white;stroke:black;stroke-width:1" /><text x="250" y="30" font-size="10" style="fill:blue">nombre</text><path d="M220 40 C240 40 220 40 240 40" style="fill:transparent;stroke:black" /><rect x="306" y="20" width="137" height="40" style="fill:green;stroke:black;stroke-width:1" /><text x="316" y="30" font-size="8" style="fill:white">Zandvoort</text><rect x="240" y="70" width="200" height="40" style="fill:white;stroke:black;stroke-width:1" /><text x="250" y="80" font-size="10" style="fill:blue">longitudCircuito</text><path d="M220 40 C240 40 220 90 240 90" style="fill:transparent;stroke:black" /><rect x="460" y="70" width="200" height="40" style="fill:white;stroke:black;stroke-width:1" /><text x="470" y="80" font-size="10" style="fill:blue">medida</text><path d="M440 90 C460 90 440 90 460 90" style="fill:transparent;stroke:black" /><rect x="526" y="70" width="137" height="40" style="fill:green;stroke:black;stroke-width:1" /><text x="536" y="80" font-size="8" style="fill:white">4259</text><rect x="460" y="120" width="200" height="40" style="fill:white;stroke:black;stroke-width:1" /><text x="470" y="130" font-size="10" style="fill:blue">unidadMedida</text><path d="M440 90 C460 90 440 140 460 140" style="fill:transparent;stroke:black" /><rect x="526" y="120" width="137" height="40" style="fill:green;stroke:black;stroke-width:1" /><text x="536" y="130" font-size="8" style="fill:white">kilometros</text><rect x="240" y="220" width="200" height="40" style="fill:white;stroke:black;stroke-width:1" /><text x="250" y="230" font-size="10" style="fill:blue">anchura</text><path d="M220 40 C240 40 220 240 240 240" style="fill:transparent;stroke:black" /><rect x="460" y="220" width="200" height="40" style="fill:white;stroke:black;stroke-width:1" /><text x="470" y="230" font-size="10" style="fill:blue">medida</text><path d="M440 240 C460 240 440 240 460 240" style="fill:transparent;stroke:black" /><rect x="526" y="220" width="137" height="40" style="fill:green;stroke:black;stroke-width:1" /><text x="536" y="230" font-size="8" style="fill:white">12</text><rect x="460" y="270" width="200" height="40" style="fill:white;stroke:black;stroke-width:1" /><text x="470" y="280" font-size="10" style="fill:blue">unidadMedida</text><path d="M440 240 C460 240 440 290 460 290" style="fill:transparent;stroke:black" /><rect x="526" y="270" width="137" height="40" style="fill:green;stroke:black;stroke-width:1" /><text x="536" y="280" font-size="8" style="fill:white">metros</text><rect x="240" y="370" width="200" height="40" style="fill:white;stroke:black;stroke-width:1" /><text x="250" y="380" font-size="10" style="fill:blue">fechaCarrera</text><path d="M220 40 C240 40 220 390 240 390" style="fill:transparent;stroke:black" /><rect x="306" y="370" width="137" height="40" style="fill:green;stroke:black;stroke-width:1" /><text x="316" y="380" font-size="8" style="fill:white">25-08-2024</text><rect x="240" y="420" width="200" height="40" style="fill:white;stroke:black;stroke-width:1" /><text x="250" y="430" font-size="10" style="fill:blue">horaCarrera</text><path d="M220 40 C240 40 220 440 240 440" style="fill:transparent;stroke:black" /><rect x="306" y="420" width="137" height="40" style="fill:green;stroke:black;stroke-width:1" /><text x="316" y="430" font-size="8" style="fill:white">15:00</text><rect x="240" y="470" width="200" height="40" style="fill:white;stroke:black;stroke-width:1" /><text x="250" y="480" font-size="10" style="fill:blue">numeroVueltas</text><path d="M220 40 C240 40 220 490 240 490" style="fill:transparent;stroke:black" /><rect x="306" y="470" width="137" height="40" style="fill:green;stroke:black;stroke-width:1" /><text x="316" y="480" font-size="8" style="fill:white">72</text><rect x="240" y="520" width="200" height="40" style="fill:white;stroke:black;stroke-width:1" /><text x="250" y="530" font-size="10" style="fill:blue">localidad</text><path d="M220 40 C240 40 220 540 240 540" style="fill:transparent;stroke:black" /><rect x="306" y="520" width="137" height="40" style="fill:green;stroke:black;stroke-width:1" /><text x="316" y="530" font-size="8" style="fill:white">Zandvoort</text><rect x="240" y="570" width="200" height="40" style="fill:white;stroke:black;stroke-width:1" /><text x="250" y="580" font-size="10" style="fill:blue">pais</text><path d="M220 40 C240 40 220 590 240 590" style="fill:transparent;stroke:black" /><rect x="306" y="570" width="137" height="40" style="fill:green;stroke:black;stroke-width:1" /><text x="316" y="580" font-size="8" style="fill:white">Países Bajos</text><rect x="240" y="620" width="200" height="40" style="fill:white;stroke:black;stroke-width:1" /><text x="250" y="630" font-size="10" style="fill:blue">referencias</text><path d="M220 40 C240 40 220 640 240 640" style="fill:transparent;stroke:black" /><rect x="460" y="620" width="200" height="40" style="fill:white;stroke:black;stroke-width:1" /><text x="470" y="630" font-size="10" style="fill:blue">referencia</text><path d="M440 640 C460 640 440 640 460 640" style="fill:transparent;stroke:black" /><rect x="526" y="620" width="137" height="40" style="fill:green;stroke:black;stroke-width:1" /><text x="536" y="630" font-size="8" style="fill:white">https://es.wikipedia.org/wiki/Circuito_de_Zandvoort</text><rect x="460" y="670" width="200" height="40" style="fill:white;stroke:black;stroke-width:1" /><text x="470" y="680" font-size="10" style="fill:blue">referencia</text><path d="M440 640 C460 640 440 690 460 690" style="fill:transparent;stroke:black" /><rect x="526" y="670" width="137" height="40" style="fill:green;stroke:black;stroke-width:1" /><text x="536" y="680" font-size="8" style="fill:white">https://www.dazn.com/es-ES/news/motor/circuito-zandvoort-donde-esta-como-es-caracteristicas-como-llegar-fotos-escenario-gp-paises-bajos-mundial-f1/z4tfep6uuudo1fqpzfnrzconu</text><rect x="460" y="720" width="200" height="40" style="fill:white;stroke:black;stroke-width:1" /><text x="470" y="730" font-size="10" style="fill:blue">referencia</text><path d="M440 640 C460 640 440 740 460 740" style="fill:transparent;stroke:black" /><rect x="526" y="720" width="137" height="40" style="fill:green;stroke:black;stroke-width:1" /><text x="536" y="730" font-size="8" style="fill:white">https://www.formula1.com/en/information/netherlands-zandvoort-circuit-zandvoort.6XdtPTIMZzx5wLKP9mm7Ev</text><rect x="460" y="770" width="200" height="40" style="fill:white;stroke:black;stroke-width:1" /><text x="470" y="780" font-size="10" style="fill:blue">referencia</text><path d="M440 640 C460 640 440 790 460 790" style="fill:transparent;stroke:black" /><rect x="526" y="770" width="137" height="40" style="fill:green;stroke:black;stroke-width:1" /><text x="536" y="780" font-size="8" style="fill:white">https://www.dazn.com/es-ES/news/motor/gp-holanda-f1-zandvoort-fecha-hora-canal-tv-donde-ver-online-gran-premio-mundial-formula-1/1vz2uwjv5byao1unukzx0hm4d8</text><rect x="240" y="870" width="200" height="40" style="fill:white;stroke:black;stroke-width:1" /><text x="250" y="880" font-size="10" style="fill:blue">galeriaFotografias</text><path d="M220 40 C240 40 220 890 240 890" style="fill:transparent;stroke:black" /><rect x="460" y="870" width="200" height="40" style="fill:white;stroke:black;stroke-width:1" /><text x="470" y="880" font-size="10" style="fill:blue">foto</text><path d="M440 890 C460 890 440 890 460 890" style="fill:transparent;stroke:black" /><rect x="526" y="870" width="137" height="40" style="fill:green;stroke:black;stroke-width:1" /><text x="536" y="880" font-size="8" style="fill:white">RectaMeta.jpg</text><rect x="460" y="920" width="200" height="40" style="fill:white;stroke:black;stroke-width:1" /><text x="470" y="930" font-size="10" style="fill:blue">foto</text><path d="M440 890 C460 890 440 940 460 940" style="fill:transparent;stroke:black" /><rect x="526" y="920" width="137" height="40" style="fill:green;stroke:black;stroke-width:1" /><text x="536" y="930" font-size="8" style="fill:white">Curva1.jpg</text><rect x="240" y="1020" width="200" height="40" style="fill:white;stroke:black;stroke-width:1" /><text x="250" y="1030" font-size="10" style="fill:blue">galeriaVideos</text><path d="M220 40 C240 40 220 1040 240 1040" style="fill:transparent;stroke:black" /><rect x="460" y="1020" width="200" height="40" style="fill:white;stroke:black;stroke-width:1" /><text x="470" y="1030" font-size="10" style="fill:blue">video</text><path d="M440 1040 C460 1040 440 1040 460 1040" style="fill:transparent;stroke:black" /><rect x="526" y="1020" width="137" height="40" style="fill:green;stroke:black;stroke-width:1" /><text x="536" y="1030" font-size="8" style="fill:white">mejoresMomentosdes.mp4</text><rect x="460" y="1070" width="200" height="40" style="fill:white;stroke:black;stroke-width:1" /><text x="470" y="1080" font-size="10" style="fill:blue">video</text><path d="M440 1040 C460 1040 440 1090 460 1090" style="fill:transparent;stroke:black" /><rect x="526" y="1070" width="137" height="40" style="fill:green;stroke:black;stroke-width:1" /><text x="536" y="1080" font-size="8" style="fill:white">LandoNorrisPoleLap.mp4</text><rect x="240" y="1170" width="200" height="40" style="fill:white;stroke:black;stroke-width:1" /><text x="250" y="1180" font-size="10" style="fill:blue">coordenadasInicio</text><path d="M220 40 C240 40 220 1190 240 1190" style="fill:transparent;stroke:black" /><rect x="460" y="1170" width="200" height="40" style="fill:white;stroke:black;stroke-width:1" /><text x="470" y="1180" font-size="10" style="fill:blue">longitud</text><path d="M440 1190 C460 1190 440 1190 460 1190" style="fill:transparent;stroke:black" /><rect x="526" y="1170" width="137" height="40" style="fill:green;stroke:black;stroke-width:1" /><text x="536" y="1180" font-size="8" style="fill:white">4.5404</text><rect x="460" y="1220" width="200" height="40" style="fill:white;stroke:black;stroke-width:1" /><text x="470" y="1230" font-size="10" style="fill:blue">latitud</text><path d="M440 1190 C460 1190 440 1240 460 1240" style="fill:transparent;stroke:black" /><rect x="526" y="1220" width="137" height="40" style="fill:green;stroke:black;stroke-width:1" /><text x="536" y="1230" font-size="8" style="fill:white">52.3886</text><rect x="460" y="1270" width="200" height="40" style="fill:white;stroke:black;stroke-width:1" /><text x="470" y="1280" font-size="10" style="fill:blue">altitud</text><path d="M440 1190 C460 1190 440 1290 460 1290" style="fill:transparent;stroke:black" /><rect x="526" y="1270" width="137" height="40" style="fill:green;stroke:black;stroke-width:1" /><text x="536" y="1280" font-size="8" style="fill:white">2</text><rect x="240" y="1370" width="200" height="40" style="fill:white;stroke:black;stroke-width:1" /><text x="250" y="1380" font-size="10" style="fill:blue">tramosCircuito</text><path d="M220 40 C240 40 220 1390 240 1390" style="fill:transparent;stroke:black" /><rect x="460" y="1370" width="200" height="40" style="fill:white;stroke:black;stroke-width:1" /><text x="470" y="1380" font-size="10" style="fill:blue">tramo</text><path d="M440 1390 C460 1390 440 1390 460 1390" style="fill:transparent;stroke:black" /><text x="470" y="1390" font-size="8" style="fill:black">distancia: 500m</text><rect x="680" y="1370" width="200" height="40" style="fill:white;stroke:black;stroke-width:1" /><text x="690" y="1380" font-size="10" style="fill:blue">longitud</text><path d="M660 1390 C680 1390 660 1390 680 1390" style="fill:transparent;stroke:black" /><rect x="746" y="1370" width="137" height="40" style="fill:green;stroke:black;stroke-width:1" /><text x="756" y="1380" font-size="8" style="fill:white">4.5411</text><rect x="680" y="1420" width="200" height="40" style="fill:white;stroke:black;stroke-width:1" /><text x="690" y="1430" font-size="10" style="fill:blue">latitud</text><path d="M660 1390 C680 1390 660 1440 680 1440" style="fill:transparent;stroke:black" /><rect x="746" y="1420" width="137" height="40" style="fill:green;stroke:black;stroke-width:1" /><text x="756" y="1430" font-size="8" style="fill:white">52.3890</text><rect x="680" y="1470" width="200" height="40" style="fill:white;stroke:black;stroke-width:1" /><text x="690" y="1480" font-size="10" style="fill:blue">altitud</text><path d="M660 1390 C680 1390 660 1490 680 1490" style="fill:transparent;stroke:black" /><rect x="746" y="1470" width="137" height="40" style="fill:green;stroke:black;stroke-width:1" /><text x="756" y="1480" font-size="8" style="fill:white">2</text><rect x="680" y="1520" width="200" height="40" style="fill:white;stroke:black;stroke-width:1" /><text x="690" y="1530" font-size="10" style="fill:blue">sector</text><path d="M660 1390 C680 1390 660 1540 680 1540" style="fill:transparent;stroke:black" /><rect x="746" y="1520" width="137" height="40" style="fill:green;stroke:black;stroke-width:1" /><text x="756" y="1530" font-size="8" style="fill:white">1</text><rect x="460" y="1620" width="200" height="40" style="fill:white;stroke:black;stroke-width:1" /><text x="470" y="1630" font-size="10" style="fill:blue">tramo</text><path d="M440 1390 C460 1390 440 1640 460 1640" style="fill:transparent;stroke:black" /><text x="470" y="1640" font-size="8" style="fill:black">distancia: 700m</text><rect x="680" y="1620" width="200" height="40" style="fill:white;stroke:black;stroke-width:1" /><text x="690" y="1630" font-size="10" style="fill:blue">longitud</text><path d="M660 1640 C680 1640 660 1640 680 1640" style="fill:transparent;stroke:black" /><rect x="746" y="1620" width="137" height="40" style="fill:green;stroke:black;stroke-width:1" /><text x="756" y="1630" font-size="8" style="fill:white">4.5420</text><rect x="680" y="1670" width="200" height="40" style="fill:white;stroke:black;stroke-width:1" /><text x="690" y="1680" font-size="10" style="fill:blue">latitud</text><path d="M660 1640 C680 1640 660 1690 680 1690" style="fill:transparent;stroke:black" /><rect x="746" y="1670" width="137" height="40" style="fill:green;stroke:black;stroke-width:1" /><text x="756" y="1680" font-size="8" style="fill:white">52.3900</text><rect x="680" y="1720" width="200" height="40" style="fill:white;stroke:black;stroke-width:1" /><text x="690" y="1730" font-size="10" style="fill:blue">altitud</text><path d="M660 1640 C680 1640 660 1740 680 1740" style="fill:transparent;stroke:black" /><rect x="746" y="1720" width="137" height="40" style="fill:green;stroke:black;stroke-width:1" /><text x="756" y="1730" font-size="8" style="fill:white">3</text><rect x="680" y="1770" width="200" height="40" style="fill:white;stroke:black;stroke-width:1" /><text x="690" y="1780" font-size="10" style="fill:blue">sector</text><path d="M660 1640 C680 1640 660 1790 680 1790" style="fill:transparent;stroke:black" /><rect x="746" y="1770" width="137" height="40" style="fill:green;stroke:black;stroke-width:1" /><text x="756" y="1780" font-size="8" style="fill:white">1</text></svg>